<svg xmlns="http://www.w3.org/2000/svg" xmlns:xlink="http://www.w3.org/1999/xlink" viewBox="0 0 2024.8 673.71"><defs><style>.cls-1{mask:url(#mask);filter:url(#luminosity-noclip-8);}.cls-10,.cls-12,.cls-14,.cls-2,.cls-4,.cls-6,.cls-8{mix-blend-mode:multiply;}.cls-2{fill:url(#radial-gradient);}.cls-3{mask:url(#mask-2);filter:url(#luminosity-noclip-13);}.cls-4{fill:url(#radial-gradient-2);}.cls-5{mask:url(#mask-3);filter:url(#luminosity-noclip-14);}.cls-6{fill:url(#radial-gradient-3);}.cls-7{mask:url(#mask-4);filter:url(#luminosity-noclip-9);}.cls-8{fill:url(#radial-gradient-4);}.cls-9{mask:url(#mask-5);filter:url(#luminosity-noclip-10);}.cls-10{fill:url(#radial-gradient-5);}.cls-11{mask:url(#mask-6);filter:url(#luminosity-noclip-11);}.cls-12{fill:url(#radial-gradient-6);}.cls-13{mask:url(#mask-7);filter:url(#luminosity-noclip-12);}.cls-14{fill:url(#radial-gradient-7);}.cls-15,.cls-17{fill:#fff;}.cls-16{fill:url(#linear-gradient);}.cls-17{font-size:338.29px;font-family:Algerian;}.cls-18{font-size:151.64px;fill:#141414;stroke:#000;stroke-miterlimit:10;stroke-width:4px;font-family:NexaLight, Nexa Light;}.cls-19{fill:none;}.cls-20{fill:url(#linear-gradient-2);}.cls-21{fill:url(#linear-gradient-3);}.cls-22{fill:url(#linear-gradient-4);}.cls-23{fill:url(#linear-gradient-5);}.cls-24{fill:url(#linear-gradient-6);}.cls-25{fill:url(#linear-gradient-7);}.cls-26{fill:url(#linear-gradient-8);}.cls-27{fill:url(#linear-gradient-9);}.cls-28{fill:url(#linear-gradient-10);}.cls-29{fill:url(#linear-gradient-11);}.cls-30{fill:url(#linear-gradient-12);}.cls-31{fill:url(#linear-gradient-13);}.cls-32{fill:url(#linear-gradient-14);}.cls-33{fill:url(#linear-gradient-15);}.cls-34{mask:url(#mask-8);}.cls-35{fill:url(#radial-gradient-8);}.cls-36{mask:url(#mask-9);}.cls-37{fill:url(#radial-gradient-9);}.cls-38{mask:url(#mask-10);}.cls-39{fill:url(#radial-gradient-10);}.cls-40{mask:url(#mask-11);}.cls-41{fill:url(#radial-gradient-11);}.cls-42{mask:url(#mask-12);}.cls-43{fill:url(#radial-gradient-12);}.cls-44{mask:url(#mask-13);}.cls-45{fill:url(#radial-gradient-13);}.cls-46{mask:url(#mask-14);}.cls-47{fill:url(#radial-gradient-14);}.cls-48{filter:url(#luminosity-noclip-7);}.cls-49{filter:url(#luminosity-noclip-6);}.cls-50{filter:url(#luminosity-noclip-5);}.cls-51{filter:url(#luminosity-noclip-4);}.cls-52{filter:url(#luminosity-noclip-3);}.cls-53{filter:url(#luminosity-noclip-2);}.cls-54{filter:url(#luminosity-noclip);}</style><filter id="luminosity-noclip" x="1776.52" y="-6096.94" width="96.64" height="32766" filterUnits="userSpaceOnUse" color-interpolation-filters="sRGB"><feFlood flood-color="#fff" result="bg"/><feBlend in="SourceGraphic" in2="bg"/></filter><mask id="mask" x="1776.52" y="-6096.94" width="96.64" height="32766" maskUnits="userSpaceOnUse"><g class="cls-54"/></mask><radialGradient id="radial-gradient" cx="1878.9" cy="74.44" r="314.35" gradientUnits="userSpaceOnUse"><stop offset="0" stop-color="gray"/><stop offset="0.27" stop-color="#4d4d4d"/><stop offset="0.59" stop-color="gray"/></radialGradient><filter id="luminosity-noclip-2" x="1870.88" y="-6096.94" width="114.73" height="32766" filterUnits="userSpaceOnUse" color-interpolation-filters="sRGB"><feFlood flood-color="#fff" result="bg"/><feBlend in="SourceGraphic" in2="bg"/></filter><mask id="mask-2" x="1870.88" y="-6096.94" width="114.73" height="32766" maskUnits="userSpaceOnUse"><g class="cls-53"/></mask><radialGradient id="radial-gradient-2" cx="1878.9" cy="74.44" r="314.35" xlink:href="#radial-gradient"/><filter id="luminosity-noclip-3" x="1792.58" y="-6096.94" width="113.96" height="32766" filterUnits="userSpaceOnUse" color-interpolation-filters="sRGB"><feFlood flood-color="#fff" result="bg"/><feBlend in="SourceGraphic" in2="bg"/></filter><mask id="mask-3" x="1792.58" y="-6096.94" width="113.96" height="32766" maskUnits="userSpaceOnUse"><g class="cls-52"/></mask><radialGradient id="radial-gradient-3" cx="1878.9" cy="74.43" r="314.36" xlink:href="#radial-gradient"/><filter id="luminosity-noclip-4" x="1759.53" y="-6096.94" width="52.21" height="32766" filterUnits="userSpaceOnUse" color-interpolation-filters="sRGB"><feFlood flood-color="#fff" result="bg"/><feBlend in="SourceGraphic" in2="bg"/></filter><mask id="mask-4" x="1759.53" y="-6096.94" width="52.21" height="32766" maskUnits="userSpaceOnUse"><g class="cls-51"/></mask><radialGradient id="radial-gradient-4" cx="1878.9" cy="74.44" r="314.35" xlink:href="#radial-gradient"/><filter id="luminosity-noclip-5" x="1904.59" y="-6096.94" width="96.64" height="32766" filterUnits="userSpaceOnUse" color-interpolation-filters="sRGB"><feFlood flood-color="#fff" result="bg"/><feBlend in="SourceGraphic" in2="bg"/></filter><mask id="mask-5" x="1904.59" y="-6096.94" width="96.64" height="32766" maskUnits="userSpaceOnUse"><g class="cls-50"/></mask><radialGradient id="radial-gradient-5" cx="1878.9" cy="74.44" r="314.35" xlink:href="#radial-gradient"/><filter id="luminosity-noclip-6" x="1966.33" y="-6096.94" width="51.89" height="32766" filterUnits="userSpaceOnUse" color-interpolation-filters="sRGB"><feFlood flood-color="#fff" result="bg"/><feBlend in="SourceGraphic" in2="bg"/></filter><mask id="mask-6" x="1966.33" y="-6096.94" width="51.89" height="32766" maskUnits="userSpaceOnUse"><g class="cls-49"/></mask><radialGradient id="radial-gradient-6" cx="1878.9" cy="74.44" r="314.34" xlink:href="#radial-gradient"/><filter id="luminosity-noclip-7" x="1816.87" y="-6096.94" width="144" height="32766" filterUnits="userSpaceOnUse" color-interpolation-filters="sRGB"><feFlood flood-color="#fff" result="bg"/><feBlend in="SourceGraphic" in2="bg"/></filter><mask id="mask-7" x="1816.87" y="-6096.94" width="144" height="32766" maskUnits="userSpaceOnUse"><g class="cls-48"/></mask><radialGradient id="radial-gradient-7" cx="1878.9" cy="74.44" r="314.35" xlink:href="#radial-gradient"/><linearGradient id="linear-gradient" x1="52.91" y1="334.46" x2="593.95" y2="334.46" gradientUnits="userSpaceOnUse"><stop offset="0.5"/><stop offset="0.5" stop-color="#2a2a2a"/><stop offset="1"/></linearGradient><linearGradient id="linear-gradient-2" x1="1396.02" y1="286.23" x2="1620.63" y2="286.23" gradientUnits="userSpaceOnUse"><stop offset="0.05"/><stop offset="0.2" stop-color="#0f0f0f"/><stop offset="0.46" stop-color="#232323"/><stop offset="0.63" stop-color="#2a2a2a"/><stop offset="0.74" stop-color="#262626"/><stop offset="0.85" stop-color="#1a1a1a"/><stop offset="0.96" stop-color="#050505"/><stop offset="0.98"/></linearGradient><linearGradient id="linear-gradient-3" x1="1396.02" y1="187.55" x2="1620.63" y2="187.55" xlink:href="#linear-gradient-2"/><linearGradient id="linear-gradient-4" x1="1396.02" y1="315.33" x2="1620.63" y2="315.33" xlink:href="#linear-gradient-2"/><linearGradient id="linear-gradient-5" x1="1396.02" y1="117.85" x2="1620.63" y2="117.85" xlink:href="#linear-gradient-2"/><linearGradient id="linear-gradient-6" x1="1396.02" y1="219.81" x2="1620.63" y2="219.81" xlink:href="#linear-gradient-2"/><linearGradient id="linear-gradient-7" x1="1396.02" y1="251.57" x2="1620.63" y2="251.57" xlink:href="#linear-gradient-2"/><linearGradient id="linear-gradient-8" x1="1396.02" y1="158" x2="1620.63" y2="158" xlink:href="#linear-gradient-2"/><linearGradient id="linear-gradient-9" x1="1396.02" y1="322.72" x2="1620.63" y2="322.72" xlink:href="#linear-gradient-2"/><linearGradient id="linear-gradient-10" x1="1396.02" y1="163.67" x2="1620.63" y2="163.67" xlink:href="#linear-gradient-2"/><linearGradient id="linear-gradient-11" x1="1396.02" y1="213.85" x2="1620.63" y2="213.85" xlink:href="#linear-gradient-2"/><linearGradient id="linear-gradient-12" x1="1396.02" y1="115.14" x2="1620.63" y2="115.14" xlink:href="#linear-gradient-2"/><linearGradient id="linear-gradient-13" x1="1396.02" y1="273.15" x2="1620.63" y2="273.15" xlink:href="#linear-gradient-2"/><linearGradient id="linear-gradient-14" x1="1396.02" y1="185.43" x2="1620.63" y2="185.43" xlink:href="#linear-gradient-2"/><linearGradient id="linear-gradient-15" x1="1396.02" y1="243.06" x2="1620.63" y2="243.06" xlink:href="#linear-gradient-2"/><filter id="luminosity-noclip-8" x="1776.52" y="81.4" width="96.64" height="108.94" filterUnits="userSpaceOnUse" color-interpolation-filters="sRGB"><feFlood flood-color="#fff" result="bg"/><feBlend in="SourceGraphic" in2="bg"/></filter><mask id="mask-8" x="1776.52" y="81.4" width="96.64" height="108.94" maskUnits="userSpaceOnUse"><g class="cls-1"><path class="cls-2" d="M1776.52,145.65a130.31,130.31,0,0,1,96.64-64.25l-68.53,108.94Z"/></g></mask><radialGradient id="radial-gradient-8" cx="1878.9" cy="74.44" r="314.35" gradientUnits="userSpaceOnUse"><stop offset="0" stop-color="#fff"/><stop offset="0.27" stop-color="#fff"/><stop offset="0.59" stop-color="#1b1b1c"/></radialGradient><filter id="luminosity-noclip-9" x="1759.53" y="168.36" width="52.21" height="72.24" filterUnits="userSpaceOnUse" color-interpolation-filters="sRGB"><feFlood flood-color="#fff" result="bg"/><feBlend in="SourceGraphic" in2="bg"/></filter><mask id="mask-9" x="1759.53" y="168.36" width="52.21" height="72.24" maskUnits="userSpaceOnUse"><g class="cls-7"><path class="cls-8" d="M1763.23,240.6a130.24,130.24,0,0,1,3.07-72.24c11.64,18.5,33.52,53.27,45.44,72.24Z"/></g></mask><radialGradient id="radial-gradient-9" cx="1878.9" cy="74.44" r="314.35" xlink:href="#radial-gradient-8"/><filter id="luminosity-noclip-10" x="1904.59" y="229.28" width="96.64" height="108.94" filterUnits="userSpaceOnUse" color-interpolation-filters="sRGB"><feFlood flood-color="#fff" result="bg"/><feBlend in="SourceGraphic" in2="bg"/></filter><mask id="mask-10" x="1904.59" y="229.28" width="96.64" height="108.94" maskUnits="userSpaceOnUse"><g class="cls-9"><path class="cls-10" d="M1973.12,229.28,2001.24,274a130.44,130.44,0,0,1-96.65,64.26Z"/></g></mask><radialGradient id="radial-gradient-10" cx="1878.9" cy="74.44" r="314.35" xlink:href="#radial-gradient-8"/><filter id="luminosity-noclip-11" x="1966.33" y="179.55" width="51.89" height="71.72" filterUnits="userSpaceOnUse" color-interpolation-filters="sRGB"><feFlood flood-color="#fff" result="bg"/><feBlend in="SourceGraphic" in2="bg"/></filter><mask id="mask-11" x="1966.33" y="179.55" width="51.89" height="71.72" maskUnits="userSpaceOnUse"><g class="cls-11"><path class="cls-12" d="M1966.33,179.55h48.33a130.26,130.26,0,0,1-3.21,71.72Z"/></g></mask><radialGradient id="radial-gradient-11" cx="1878.9" cy="74.44" r="314.34" xlink:href="#radial-gradient-8"/><filter id="luminosity-noclip-12" x="1816.87" y="179.55" width="144" height="61.05" filterUnits="userSpaceOnUse" color-interpolation-filters="sRGB"><feFlood flood-color="#fff" result="bg"/><feBlend in="SourceGraphic" in2="bg"/></filter><mask id="mask-12" x="1816.87" y="179.55" width="144" height="61.05" maskUnits="userSpaceOnUse"><g class="cls-13"><polygon class="cls-14" points="1836.24 240.6 1816.87 209.82 1835.91 179.55 1941.84 179.55 1960.87 209.82 1941.51 240.6 1836.24 240.6"/></g></mask><radialGradient id="radial-gradient-12" cx="1878.9" cy="74.44" r="314.35" xlink:href="#radial-gradient-8"/><filter id="luminosity-noclip-13" x="1870.88" y="80.77" width="114.73" height="43.19" filterUnits="userSpaceOnUse" color-interpolation-filters="sRGB"><feFlood flood-color="#fff" result="bg"/><feBlend in="SourceGraphic" in2="bg"/></filter><mask id="mask-13" x="1870.88" y="80.77" width="114.73" height="43.19" maskUnits="userSpaceOnUse"><g class="cls-3"><path class="cls-4" d="M1870.88,124l27.17-43.19A129,129,0,0,1,1985.62,124Z"/></g></mask><radialGradient id="radial-gradient-13" cx="1878.9" cy="74.44" r="314.35" xlink:href="#radial-gradient-8"/><filter id="luminosity-noclip-14" x="1792.58" y="296.19" width="113.96" height="42.61" filterUnits="userSpaceOnUse" color-interpolation-filters="sRGB"><feFlood flood-color="#fff" result="bg"/><feBlend in="SourceGraphic" in2="bg"/></filter><mask id="mask-14" x="1792.58" y="296.19" width="113.96" height="42.61" maskUnits="userSpaceOnUse"><g class="cls-5"><path class="cls-6" d="M1879.74,338.79c-35.71-3.32-65-17.64-87.16-42.6h114C1886.67,327.78,1881.49,336,1879.74,338.79Z"/></g></mask><radialGradient id="radial-gradient-14" cx="1878.9" cy="74.43" r="314.36" xlink:href="#radial-gradient-8"/></defs><g id="Layer_2" data-name="Layer 2"><g id="OBJECTS"><path d="M323.43,673.71l-16.95-10.12C289.61,653.51,273,644,256.77,634.68,140.84,568.22,31.34,505.44,47,351,63.84,184.51,25.55,120.63,25.16,120L0,82.59,43.58,70.35c1.36-.39,34.34-10.06,127.2-34C269.35,11,315,1.7,316.9,1.31L323.43,0,330,1.31c1.89.39,47.55,9.65,146.12,35.06,92.86,23.92,125.83,33.59,127.19,34l43.27,12.73-25.17,37.43c-.06.12-38.36,64-21.49,230.45C615.52,505.44,506,568.22,390.09,634.68c-16.19,9.28-32.84,18.83-49.72,28.91ZM98.13,123.83c13.17,40.83,26.66,114.87,14.62,233.79C101.93,464.45,166,506.43,289.64,577.34q16.62,9.52,33.79,19.49,17.13-10,33.78-19.49c123.68-70.91,187.72-112.89,176.9-219.72-12-118.92,1.45-193,14.61-233.79-19.86-5.38-48.86-13.08-89.13-23.45-75.93-19.57-120.41-29.5-136.16-32.89-15.76,3.39-60.24,13.32-136.16,32.89C147,110.75,118,118.45,98.13,123.83Z"/><path class="cls-15" d="M323.43,651.71l-7.26-4.34c-17-10.13-33.72-19.73-50-29.07C150.9,552.22,51.36,495.15,65.78,352.86c17.75-175.39-24.26-242.33-24.68-243L30.73,93.93l18.19-5.46c1.34-.39,34-10,126.57-33.81,98.09-25.29,143.26-34.45,145.14-34.83l2.8-.57,2.8.57c1.87.38,47,9.54,145.14,34.83C563.92,78.51,596.6,88.08,597.94,88.47l18.54,5.46L605.7,110c-.37.56-42.38,67.5-24.62,242.89C595.49,495.15,496,552.22,380.69,618.3c-16.28,9.34-33,18.94-50,29.07ZM73.23,111.05C86.25,141.85,108,217,94,355.72c-12.56,124,70.85,171.82,186.29,238,14.1,8.09,28.54,16.37,43.18,25,14.63-8.65,29.07-16.93,43.18-25,115.43-66.18,198.84-114,186.29-238C538.84,217,560.61,141.85,573.63,111.05c-18.12-5-52.57-14.34-109.33-29-83.82-21.6-129.56-31.52-140.87-33.91-11.31,2.39-57.06,12.31-140.87,33.91C125.8,96.71,91.35,106,73.23,111.05Z"/><path class="cls-16" d="M323.43,33.71S369,42.89,467.83,68.37C561.22,92.44,594,102.06,594,102.06s-45.63,67.85-27,252.23c15.4,152.11-106.86,199.28-243.56,280.92-136.7-81.64-259-128.81-243.56-280.92,18.67-184.38-27-252.23-27-252.23S85.64,92.44,179,68.37C277.88,42.89,323.43,33.71,323.43,33.71Z"/><text class="cls-17" transform="translate(108.46 431.96)">HG</text><polygon points="1725.42 82.35 1664.59 82.35 1664.59 126.01 1725.42 109.27 1725.42 82.35"/><polygon points="1725.42 232.93 1664.59 238.42 1664.59 259.44 1725.42 253.96 1725.42 232.93"/><polygon points="1725.42 187.63 1664.59 196.16 1664.59 234.4 1725.42 228.92 1725.42 187.63"/><polygon points="1725.42 113.42 1664.59 130.16 1664.59 162.29 1725.42 154.71 1725.42 113.42"/><polygon points="1725.42 158.74 1664.59 166.32 1664.59 192.12 1725.42 183.59 1725.42 158.74"/><polygon points="1725.42 257.97 1664.59 263.45 1664.59 306.29 1725.42 300.8 1725.42 257.97"/><polygon points="1664.59 310.3 1664.59 345.66 1725.42 345.66 1725.42 304.82 1664.59 310.3"/><text class="cls-18" transform="translate(757.82 548.71)">ACADEMY</text><path class="cls-19" d="M1808.73,539.1a183.84,183.84,0,0,0,25.59,9,109.29,109.29,0,0,0,29.14,4,79,79,0,0,0,9.65-.55,148.26,148.26,0,0,1-14.32-19.06C1842.47,535.16,1825.72,537.39,1808.73,539.1Z"/><path class="cls-19" d="M766.42,510.65q7.16-2.85,14.32-5.51v-2.53C775.93,505.21,771.16,507.87,766.42,510.65Z"/><path class="cls-19" d="M1825,419.17l3-.46c5.37-.86,10.92-1.8,16.91-2.87a140.78,140.78,0,0,1,5.86-14.2h0c.43-.9.88-1.8,1.32-2.69q-11.85.69-18.84,5C1827.91,407.33,1825.17,412.39,1825,419.17Z"/><path class="cls-19" d="M1561.5,200.9V176.66c-2.9,0-5.81,0-8.72,0q-18.43,0-37-.73l19.58,24.66Q1548.27,200.95,1561.5,200.9Z"/><path class="cls-19" d="M1455.15,233.81v20.54c18.1,2.38,36.26,4.44,54.48,6.07L1492,238.56C1479.42,237.2,1467.16,235.6,1455.15,233.81Z"/><path class="cls-19" d="M1461,200c-1.94-.19-3.88-.38-5.8-.59v30.38q16.3,2.44,33.31,4.38Z"/><path class="cls-19" d="M1276.68,195.67v27.51q14.52,2.88,29.12,5.74l-26.23-32.57Z"/><path class="cls-19" d="M1455.15,192.77v2.59l2.27.23Z"/><path class="cls-19" d="M1735.61,115.56q-5.89,1.93-11.89,3.78v10.49A130,130,0,0,1,1735.61,115.56Z"/><path class="cls-19" d="M1383,220.51c-4.17-.89-8.33-1.81-12.49-2.73L1383,233.51Z"/><path class="cls-19" d="M1561.5,172.65V151.14q-20.88,2.1-42.37,3.39c-1.57.1-3.15.19-4.72.27q-7.37.4-14.82.71l12.94,16.31Q1537.09,172.87,1561.5,172.65Z"/><path class="cls-19" d="M1383,216.42V189.71q-20.31-3.24-40.15-6.79l23.71,29.88Q1374.79,214.65,1383,216.42Z"/><path class="cls-19" d="M1455.15,258.38v31.3l1.45.25c30,5,58.63,9,86.44,12l-29.92-37.15C1493.72,263.08,1474.4,260.91,1455.15,258.38Z"/><path class="cls-19" d="M1276.68,227.26v25.49c19.35,4.42,39.07,8.9,59,13.3l-26-32.29Q1293.14,230.54,1276.68,227.26Z"/><path class="cls-19" d="M1134.31,200.44V222.1c27,5,54.12,10.79,83.25,17.26v-23.8C1189.93,210.18,1162,205,1134.31,200.44Z"/><path class="cls-19" d="M1217.56,171.51c-30.79-6.3-65.51-12.42-104.39-17.08h0c-24.13-2.91-49-5.12-73.93-6.58l-5.87-.31v25q6.89.56,13.91,1.22h87v11.55c27.74,4.53,55.63,9.72,83.25,15.1Z"/><path class="cls-19" d="M1113.64,161.5c38.68,4.64,73.24,10.71,103.92,17V161l-1.73-.26c-36.77-5.52-68.26-8.72-99.11-10.09a701.71,701.71,0,0,0-80.62,1l-2.74.21v2.76l6.1.32C1064.47,156.37,1089.43,158.59,1113.64,161.5Z"/><path class="cls-19" d="M1538.64,204.71l22.86,28.8V204.9l-3.51,0Q1548.21,204.92,1538.64,204.71Z"/><path class="cls-19" d="M732.29,244.47q24.16-9.66,48.64-17v-7.57A407.57,407.57,0,0,0,732.29,244.47Z"/><path class="cls-19" d="M840.06,200v13.08A615.42,615.42,0,0,1,953.41,203q10.32,0,20.82.31V185C925.15,184.68,880.87,189.59,840.06,200Z"/><path class="cls-19" d="M1382.32,154.8c-6.27-.31-12.65-.67-19.1-1.07q9.91,2,19.82,3.73v-2.62Z"/><path class="cls-20" d="M1513.12,264.75,1543,301.9c26.55,2.84,52.29,4.76,77.59,5.82V268.29A957.58,957.58,0,0,1,1513.12,264.75Z"/><path class="cls-21" d="M1561.5,200.9c19.07-.07,38.74-.73,59.13-2.11V174.2q-29.45,2.18-59.13,2.46Z"/><path class="cls-22" d="M1442.17,339.15h13V293.74q-6.42-1.08-13-2.23Z"/><path class="cls-23" d="M1496.51,151.63l-54.34-68.46V152.5Q1469.89,152.67,1496.51,151.63Z"/><path class="cls-24" d="M1561.5,233.51l-22.86-28.8c-27-.56-52.78-2.26-77.69-4.74l27.51,34.17a902.11,902.11,0,0,0,132.17,5V202.8c-20.39,1.37-40.06,2-59.13,2.1Z"/><path class="cls-25" d="M1492,238.56l17.6,21.86a961.24,961.24,0,0,0,111,3.87v-21.2q-16.83.57-32.8.56A887,887,0,0,1,1492,238.56Z"/><path class="cls-26" d="M1620.63,170.2V143.34q-28.83,4.77-59.13,7.8v21.51Q1591.19,172.37,1620.63,170.2Z"/><path class="cls-27" d="M1573,339.15h47.59V311.72c-24.17-1-48.76-2.8-74.05-5.43Z"/><path class="cls-28" d="M1512.53,171.82l-12.94-16.31c-18.69.78-37.87,1.11-57.42,1v9.69Q1477.45,170.32,1512.53,171.82Z"/><path class="cls-29" d="M1455.15,199.38q-6.54-.67-13-1.43v29.78q6.43,1.05,13,2Z"/><path class="cls-30" d="M1620.63,83.17H1561.5v64q30.27-3.06,59.13-7.84Z"/><path class="cls-31" d="M1442.17,256.62v30.83q6.55,1.16,13,2.23v-31.3Q1448.65,257.52,1442.17,256.62Z"/><path class="cls-32" d="M1455.15,192.77l2.27,2.82c25,2.58,50.9,4.38,78,5L1515.83,176q-36.72-1.44-73.66-5.75v23.7q6.45.75,13,1.44Z"/><path class="cls-33" d="M1442.17,231.78v20.8q6.48.91,13,1.77V233.81Q1448.61,232.83,1442.17,231.78Z"/><path d="M780.93,341.15h59.13v-124a558.31,558.31,0,0,0-59.13,14.46Z"/><path d="M780.93,219.88v7.57a565.39,565.39,0,0,1,59.13-14.37V200A410.58,410.58,0,0,0,780.93,219.88Z"/><path d="M840.06,137.08h77.87V85.17H702.69v51.91h78.24V215.6a419.57,419.57,0,0,1,59.13-19.67Z"/><path d="M1065.2,214.93a874.94,874.94,0,0,0-91-7.62V339.15h179.91V287.23H1033.36V232.79h101v-6.62q-13.47-2.53-26.93-4.81C1092.4,218.82,1078.6,216.71,1065.2,214.93Z"/><path d="M1108.64,196.43c-19.51-2.89-37.58-5.18-55.25-7-27.77-2.83-54.08-4.32-79.16-4.47v18.32a877.2,877.2,0,0,1,91.5,7.67c13.44,1.79,27.29,3.9,42.32,6.45q13.15,2.24,26.26,4.69V200.44Q1121.46,198.34,1108.64,196.43Z"/><path d="M1047.27,184.84c2.18.21,4.33.4,6.53.62,17.73,1.82,35.86,4.11,55.43,7q12.51,1.86,25.08,3.92V184.84Z"/><path d="M1368.82,277.28q-14.61-3.07-29.11-6.26l54.87,68.13H1396v-56.3Q1382.81,280.21,1368.82,277.28Z"/><path d="M1396,219.15V191.73q-6.52-1-13-2v26.71Q1389.51,217.82,1396,219.15Z"/><path d="M1263.82,224.7l-2.21-.44q-21.84-4.35-44-8.7v23.8c15,3.35,30.62,6.89,47,10.62l6.57,1.5,5.59,1.27V227.26Z"/><path d="M1396,83.17h-13v67.66q6.51.33,13,.58Z"/><path d="M1269.75,165.61c11.8,2.1,23.84,4.3,35.48,6.43q16.88,3.09,33.9,6.15l-75.42-95h-46.15V157c7.33,1.09,15.23,2.34,25.38,4C1251.09,162.35,1259.86,163.86,1269.75,165.61Z"/><polygon points="1442.17 83.17 1442.17 83.17 1442.17 83.17 1442.17 83.17"/><path d="M1264.6,220.78l12.08,2.4V195.67q-6.37-1.5-12.81-3c-14.32-3.3-29.75-6.74-46.31-10.13v28.92q22.56,4.4,44.83,8.86Z"/><path d="M1264.77,188.8c15.88,3.65,31.6,7.42,46.79,11.07,18.42,4.41,36.65,8.79,55,12.93l-23.71-29.88c-12.88-2.28-25.66-4.62-38.38-6.94-11.64-2.13-23.67-4.33-35.46-6.43-9.88-1.75-18.63-3.26-26.76-4.61-9.86-1.63-17.58-2.86-24.73-3.93v17.47C1234.46,181.93,1250.18,185.44,1264.77,188.8Z"/><path d="M1396,163.74q-6.49-1.06-13-2.22v24.14q6.46,1,13,2Z"/><path d="M1383,220.51v13l-12.49-15.73c-20-4.46-39.87-9.22-59.92-14-10.15-2.44-20.55-4.93-31.06-7.41l26.23,32.57c29.86,5.84,59.94,11.51,90.22,16.55V223.24Q1389.51,221.9,1383,220.51Z"/><path d="M1309.7,233.76l26,32.29q16.89,3.72,34,7.32,13.56,2.85,26.37,5.4V249.53C1367.05,244.72,1338.27,239.33,1309.7,233.76Z"/><path d="M1383,154.84v2.62q6.49,1.17,13,2.23v-4.27Q1389.56,155.15,1383,154.84Z"/><path d="M1263.63,253.88c-16-3.66-31.3-7.13-46.07-10.42v95.69h59.12V256.86l-6.49-1.48Z"/><path d="M1442.17,156.5q-22.76-.13-46.15-1.08v4.27q23.1,3.81,46.15,6.5Z"/><path d="M1442.17,170.22q-23-2.67-46.15-6.48v23.94c15.11,2.3,30.47,4.41,46.15,6.24Z"/><path d="M1442.17,152.5V83.17H1396v68.24Q1419.39,152.35,1442.17,152.5Z"/><path d="M1442.17,227.73V198q-23.52-2.74-46.15-6.22v27.42C1411.12,222.26,1426.44,225.16,1442.17,227.73Z"/><path d="M1396,249.53v29.24c16.11,3.21,31.41,6.09,46.15,8.68V256.62Q1419,253.38,1396,249.53Z"/><path d="M1396,282.85v56.3h46.15V291.51C1427.43,288.92,1412.12,286.05,1396,282.85Z"/><path d="M1396,223.24v22.23c15.33,2.55,30.72,4.95,46.15,7.11v-20.8C1426.44,229.22,1411.12,226.34,1396,223.24Z"/><path d="M974.23,83.17V181q28.34.16,59.13,2.65V135.08H1150.9V83.17Z"/><path d="M1881.9,76.07a134,134,0,0,0-110.68,69.72c20.19,32.1,13.26,21.09,33.41,53.11C1831.28,156.55,1801.64,203.64,1881.9,76.07Z"/><path d="M1765.28,158.17a134.1,134.1,0,0,0-5.58,87H1820Z"/><path d="M2006.53,273.83l-33.41-53.11-77.27,122.84A134.06,134.06,0,0,0,2006.53,273.83Z"/><path d="M2018.2,175h-60.12c30,47.66,20.87,33.17,54.39,86.47A134.2,134.2,0,0,0,2018.2,175Z"/><path d="M1966.26,209.82,1944.35,175H1833.4l-21.92,34.83,22.25,35.33H1944Z"/><path d="M1895.85,76.07l-.11-.18-33.11,52.62h132.65A133.66,133.66,0,0,0,1895.85,76.07Z"/><path d="M1914.79,291.63H1782.88c22.55,29.17,55.41,48.57,99.24,51.94Z"/><g class="cls-34"><path class="cls-35" d="M1776.52,145.65a130.31,130.31,0,0,1,96.64-64.25l-68.53,108.94Z"/></g><g class="cls-36"><path class="cls-37" d="M1763.23,240.6a130.24,130.24,0,0,1,3.07-72.24c11.64,18.5,33.52,53.27,45.44,72.24Z"/></g><g class="cls-38"><path class="cls-39" d="M1973.12,229.28,2001.24,274a130.44,130.44,0,0,1-96.65,64.26Z"/></g><g class="cls-40"><path class="cls-41" d="M1966.33,179.55h48.33a130.26,130.26,0,0,1-3.21,71.72Z"/></g><g class="cls-42"><polygon class="cls-43" points="1836.24 240.6 1816.87 209.82 1835.91 179.55 1941.84 179.55 1960.87 209.82 1941.51 240.6 1836.24 240.6"/></g><g class="cls-44"><path class="cls-45" d="M1870.88,124l27.17-43.19A129,129,0,0,1,1985.62,124Z"/></g><g class="cls-46"><path class="cls-47" d="M1879.74,338.79c-35.71-3.32-65-17.64-87.16-42.6h114C1886.67,327.78,1881.49,336,1879.74,338.79Z"/></g></g></g></svg>